<svg className={props.className} width="54" height="54" viewBox="0 0 54 54" fill="none" xmlns="http://www.w3.org/2000/svg">
<path d="M7 53H47V0L39.0634 10.7756C39.0634 10.7756 34.3019 7.60633 27 7.60633C19.6981 7.60633 14.9366 10.7756 14.9366 10.7756L7 0V53ZM8.66369 5.05984L13.5949 11.7552L14.5357 13.0231L15.8575 12.1552C15.9016 12.1262 20.3403 9.26258 27.0008 9.26258C33.6606 9.26258 38.1001 12.1262 38.1392 12.1527L39.4635 13.0339L45.3363 5.05984V51.3438H8.66369V5.05984Z" fill="#FF5C00"/>
<path d="M17.5262 30.2663C17.9072 30.3475 18.2774 30.3847 18.6367 30.3847C22.4657 30.3847 24.9862 26.1456 24.9862 26.1456L11.9703 21.8675C11.9703 21.8675 13.0825 29.3156 17.5262 30.2663ZM22.1987 26.9745C21.3202 27.8449 20.0733 28.7293 18.6367 28.7293C18.3855 28.7293 18.1293 28.702 17.8756 28.6473C16.1886 28.2863 15.0407 26.2615 14.3577 24.3966L22.1987 26.9745Z" fill="#FF5C00"/>
<path d="M35.3633 30.3847C35.7226 30.3847 36.0928 30.3475 36.4738 30.2663C40.9183 29.3156 42.0288 21.8675 42.0288 21.8675L29.013 26.1464C29.013 26.1464 31.5343 30.3847 35.3633 30.3847ZM39.6423 24.3966C38.9593 26.2615 37.8114 28.2863 36.1244 28.6473C35.8707 28.7012 35.6145 28.7293 35.3633 28.7293C33.9258 28.7293 32.6797 27.8449 31.8013 26.9745L39.6423 24.3966Z" fill="#FF5C00"/>
<path d="M27.2736 40.4481C25.1574 40.4481 22.6885 41.2224 20.0424 43.547H34.3285C34.3285 43.547 31.506 40.4481 27.2736 40.4481Z" fill="#FF5C00"/>
</svg>
