<svg className={props.className} width="54" height="54" viewBox="0 0 54 54" fill="none" xmlns="http://www.w3.org/2000/svg">
<path d="M26.322 49.6791C26.3862 49.7538 26.4628 49.8173 26.5486 49.867C26.577 49.8847 26.6064 49.9008 26.6367 49.9151C26.8652 50.0283 27.1348 50.0283 27.3632 49.9151C27.3936 49.9008 27.423 49.8847 27.4514 49.867C27.5371 49.8173 27.6137 49.7538 27.678 49.6791C27.6911 49.664 27.7112 49.6576 27.7233 49.6415L53.8233 14.9506C53.8618 14.8746 53.9003 14.7987 53.9388 14.7228C53.9631 14.6526 53.978 14.5795 53.9833 14.5056C53.9903 14.4788 53.9958 14.4518 54 14.4245C54 14.4167 53.9957 14.4103 53.9955 14.4025C53.9942 14.2924 53.9718 14.1835 53.9296 14.0814C53.9263 14.0737 53.9196 14.0683 53.916 14.0607C53.8775 13.9737 53.8248 13.8933 53.76 13.8228L44.76 4.28294C44.752 4.27446 44.7401 4.27138 44.7318 4.26323C44.7234 4.25507 44.7204 4.24384 44.7117 4.23586C44.6682 4.20374 44.6216 4.17579 44.5726 4.15238C44.4233 4.07955 44.2642 4.02823 44.1 4H9.89998C9.86308 4.00518 9.82654 4.01268 9.79061 4.02246C9.71439 4.02811 9.63925 4.04354 9.5671 4.06835C9.51826 4.09192 9.47174 4.11986 9.42812 4.15183C9.37887 4.17538 9.33204 4.20352 9.28826 4.23586C9.27953 4.24383 9.27656 4.25498 9.26821 4.26323C9.25986 4.27149 9.24794 4.27447 9.23992 4.28294L0.239922 13.8228C0.175157 13.8933 0.122469 13.9737 0.083916 14.0608C0.080451 14.0684 0.073701 14.0737 0.070416 14.0814C0.0281756 14.1835 0.00581571 14.2924 0.0045 14.4026C0.004284 14.4103 0 14.4167 0 14.4245C0.00417265 14.4518 0.00974473 14.4789 0.016695 14.5057C0.022001 14.5796 0.0369742 14.6526 0.061245 14.7228C0.0786467 14.7656 0.0995722 14.8069 0.123813 14.8463C0.138956 14.8822 0.156614 14.9171 0.176661 14.9506L26.2767 49.6415C26.2887 49.6576 26.3089 49.664 26.322 49.6791ZM9.89982 6.18579L16.8377 13.5399H2.96168L9.89982 6.18579ZM51.0383 13.5399H37.1622L44.1001 6.18579L51.0383 13.5399ZM35.1351 13.0859L28.923 5.76923H42.0377L35.1351 13.0859ZM33.1769 13.5399H20.8231L27 6.26493L33.1769 13.5399ZM18.8648 13.0859L11.9622 5.76923H25.0769L18.8648 13.0859ZM33.9701 15.3091L27 45.1605L20.0299 15.3091H33.9701ZM28.8425 45.1788L35.8168 15.3091H51.315L28.8425 45.1788ZM2.68493 15.3091H18.1832L25.1575 45.1788L2.68493 15.3091Z" fill="#FF5C00"/>
</svg>
