<svg className={props.className} width="54" height="54" viewBox="0 0 54 54" fill="none" xmlns="http://www.w3.org/2000/svg">
<path d="M28.0002 0C16.972 0 8 8.91436 8 19.8716V51.412C8 52.2213 8.41676 52.9562 9.11493 53.3785C9.80272 53.7947 10.6383 53.8243 11.3496 53.4597C12.8626 52.6818 13.7938 51.238 14.6941 49.842C15.972 47.8604 16.8682 46.6573 18.5342 46.6573C20.1998 46.6573 21.096 47.8604 22.374 49.842C23.6311 51.791 25.0555 54 28.005 54C30.9528 54 32.3765 51.791 33.6326 49.842C34.9095 47.8604 35.805 46.6573 37.4693 46.6573C39.1342 46.6573 40.03 47.8604 41.3077 49.842C42.2076 51.2376 43.1381 52.6811 44.65 53.459C45.3603 53.8243 46.1966 53.7947 46.8851 53.3782C47.5832 52.9562 48 52.2209 48 51.4117V19.8716C48 8.91436 39.028 0 28.0002 0ZM45.8733 51.4117C45.8733 51.5028 45.8144 51.552 45.7795 51.573C45.7009 51.6211 45.6459 51.5926 45.6279 51.5826C44.6216 51.065 43.8819 49.9173 43.0986 48.7023C41.8421 46.7533 40.4177 44.5443 37.4693 44.5443C34.5215 44.5443 33.0978 46.7533 31.8417 48.7023C30.5647 50.6839 29.6693 51.887 28.005 51.887C26.339 51.887 25.4429 50.6836 24.1646 48.7019C22.9077 46.7533 21.4833 44.5443 18.5342 44.5443C15.585 44.5443 14.1603 46.7533 12.9035 48.7019C12.1198 49.9173 11.3794 51.065 10.3721 51.5829C10.3538 51.5919 10.2987 51.6211 10.2205 51.5733C10.1856 51.5523 10.1267 51.5032 10.1267 51.412V19.8716C10.1267 10.0796 18.1448 2.11303 28.0002 2.11303C37.8556 2.11303 45.8733 10.0796 45.8733 19.8716V51.4117Z" fill="white"/>
<path d="M19.5 12C15.9159 12 13 14.9159 13 18.5C13 22.0841 15.9159 25 19.5 25C23.0841 25 26 22.0841 26 18.5C26 14.9159 23.0841 12 19.5 12ZM15.08 18.5C15.08 16.0628 17.0628 14.08 19.5 14.08C20.52 14.08 21.4578 14.4307 22.2066 15.0133C21.9349 14.9476 21.6551 14.9034 21.3632 14.9034C19.3768 14.9034 17.7665 16.5137 17.7665 18.5001C17.7665 20.4865 19.3768 22.0968 21.3632 22.0968C21.6549 22.0968 21.9346 22.0525 22.2062 21.987C21.4575 22.5694 20.5199 22.92 19.5 22.92C17.0628 22.92 15.08 20.9372 15.08 18.5Z" fill="white"/>
<path d="M35.5 12C31.9159 12 29 14.9159 29 18.5C29 22.0841 31.9159 25 35.5 25C39.0841 25 42 22.0841 42 18.5C42 14.9159 39.0841 12 35.5 12ZM31.08 18.5C31.08 16.0628 33.0628 14.08 35.5 14.08C36.52 14.08 37.4578 14.4307 38.2066 15.0133C37.9349 14.9476 37.6551 14.9034 37.3632 14.9034C35.3768 14.9034 33.7665 16.5137 33.7665 18.5001C33.7665 20.4865 35.3768 22.0968 37.3632 22.0968C37.6549 22.0968 37.9346 22.0525 38.2062 21.987C37.4575 22.5694 36.5199 22.92 35.5 22.92C33.0628 22.92 31.08 20.9372 31.08 18.5Z" fill="white"/>
</svg>
