<svg className={props.className} width="54" height="54" viewBox="0 0 54 54" fill="none" xmlns="http://www.w3.org/2000/svg">
<path d="M18.8372 23.8919H13.814C13.1233 23.8919 12.5581 24.4514 12.5581 25.1351V30.1081C12.5581 30.7919 13.1233 31.3514 13.814 31.3514H18.8372C19.5279 31.3514 20.093 30.7919 20.093 30.1081V25.1351C20.093 24.4514 19.5279 23.8919 18.8372 23.8919ZM17.5814 28.8649H15.0698V26.3784H17.5814V28.8649ZM52.7442 25.1351H47.7209V20.1622C47.7209 19.4784 47.1558 18.9189 46.4651 18.9189H41.4419V15.1892C41.4419 14.5054 40.8767 13.9459 40.186 13.9459H36.4186V11.4595H40.186C40.8767 11.4595 41.4419 10.9 41.4419 10.2162V5.24324C41.4419 4.55946 40.8767 4 40.186 4H35.1628C34.4721 4 33.907 4.55946 33.907 5.24324V8.97297H30.1395C29.4488 8.97297 28.8837 9.53243 28.8837 10.2162V13.9459H25.1163V10.2162C25.1163 9.53243 24.5512 8.97297 23.8605 8.97297H20.093V5.24324C20.093 4.55946 19.5279 4 18.8372 4H13.814C13.1233 4 12.5581 4.55946 12.5581 5.24324V10.2162C12.5581 10.9 13.1233 11.4595 13.814 11.4595H17.5814V13.9459H13.814C13.1233 13.9459 12.5581 14.5054 12.5581 15.1892V18.9189H7.53488C6.84419 18.9189 6.27907 19.4784 6.27907 20.1622V25.1351H1.25581C0.565116 25.1351 0 25.6946 0 26.3784V43.7838C0 44.4676 0.565116 45.027 1.25581 45.027H6.27907C6.96977 45.027 7.53488 44.4676 7.53488 43.7838V36.3243H11.3023V43.7838C11.3023 44.4676 11.8674 45.027 12.5581 45.027H16.3256V48.7568C16.3256 49.4405 16.8907 50 17.5814 50H22.6047C23.2953 50 23.8605 49.4405 23.8605 48.7568V43.7838C23.8605 43.1 23.2953 42.5405 22.6047 42.5405H18.8372V40.0541H35.1628V42.5405H31.3953C30.7047 42.5405 30.1395 43.1 30.1395 43.7838V48.7568C30.1395 49.4405 30.7047 50 31.3953 50H36.4186C37.1093 50 37.6744 49.4405 37.6744 48.7568V45.027H41.4419C42.1326 45.027 42.6977 44.4676 42.6977 43.7838V36.3243H46.4651V43.7838C46.4651 44.4676 47.0302 45.027 47.7209 45.027H52.7442C53.4349 45.027 54 44.4676 54 43.7838V26.3784C54 25.6946 53.4349 25.1351 52.7442 25.1351ZM36.4186 6.48649H38.9302V8.97297H36.4186V6.48649ZM15.0698 6.48649H17.5814V8.97297H15.0698V6.48649ZM21.3488 47.5135H18.8372V45.027H21.3488V47.5135ZM35.1628 47.5135H32.6512V45.027H35.1628V47.5135ZM48.9767 42.5405V35.0811C48.9767 34.3973 48.4116 33.8378 47.7209 33.8378H41.4419C40.7512 33.8378 40.186 34.3973 40.186 35.0811V42.5405H37.6744V38.8108C37.6744 38.127 37.1093 37.5676 36.4186 37.5676H17.5814C16.8907 37.5676 16.3256 38.127 16.3256 38.8108V42.5405H13.814V35.0811C13.814 34.3973 13.2488 33.8378 12.5581 33.8378H6.27907C5.58837 33.8378 5.02326 34.3973 5.02326 35.0811V42.5405H2.51163V27.6216H7.53488C8.22558 27.6216 8.7907 27.0622 8.7907 26.3784V21.4054H13.814C14.5047 21.4054 15.0698 20.8459 15.0698 20.1622V16.4324H18.8372C19.5279 16.4324 20.093 15.873 20.093 15.1892V11.4595H22.6047V15.1892C22.6047 15.873 23.1698 16.4324 23.8605 16.4324H30.1395C30.8302 16.4324 31.3953 15.873 31.3953 15.1892V11.4595H33.907V15.1892C33.907 15.873 34.4721 16.4324 35.1628 16.4324H38.9302V20.1622C38.9302 20.8459 39.4953 21.4054 40.186 21.4054H45.2093V26.3784C45.2093 27.0622 45.7744 27.6216 46.4651 27.6216H51.4884V42.5405H48.9767ZM40.186 23.8919H35.1628C34.4721 23.8919 33.907 24.4514 33.907 25.1351V30.1081C33.907 30.7919 34.4721 31.3514 35.1628 31.3514H40.186C40.8767 31.3514 41.4419 30.7919 41.4419 30.1081V25.1351C41.4419 24.4514 40.8767 23.8919 40.186 23.8919ZM38.9302 28.8649H36.4186V26.3784H38.9302V28.8649Z" fill="white"/>
</svg>
