<svg width="54" height="54" viewBox="0 0 54 54" fill="none" xmlns="http://www.w3.org/2000/svg">
<path d="M41.2274 22.4596C43.3369 22.2676 45.2685 21.2092 46.5527 19.5416C47.3015 18.6008 47.8436 17.5157 48.1443 16.3556L50.9078 6.09569C51.1262 5.28522 50.9517 4.42029 50.4355 3.7551C49.9192 3.0899 49.12 2.70001 48.2726 2.7H41.5472V1.8C41.5462 0.806299 40.7327 0.000992214 39.7288 0H14.2712C13.2673 0.000992214 12.4538 0.806299 12.4528 1.8V2.7H5.72741C4.88002 2.70001 4.08078 3.0899 3.56456 3.75509C3.04833 4.42027 2.87377 5.28519 3.09217 6.09565L5.85573 16.3556C6.15641 17.5157 6.6985 18.6008 7.44728 19.5416C8.73152 21.2092 10.6631 22.2676 12.7726 22.4595C13.9501 27.4191 18.2321 31.0559 23.3632 31.4544V37.8H21.5448C21.0427 37.8 20.6356 38.2029 20.6356 38.7V41.4H19.7264C17.5672 41.4029 15.707 42.9065 15.2723 45H12.4528C11.4489 45.001 10.6354 45.8063 10.6344 46.8V52.2C10.6354 53.1937 11.4489 53.999 12.4528 54H41.5472C42.5511 53.999 43.3646 53.1937 43.3656 52.2V46.8C43.3646 45.8063 42.5511 45.001 41.5472 45H38.7277C38.293 42.9065 36.4328 41.4029 34.2736 41.4H33.3644V38.7C33.3644 38.2029 32.9573 37.8 32.4552 37.8H30.6368V31.4544C35.7679 31.0559 40.0498 27.4192 41.2274 22.4596ZM48.2726 4.5C48.555 4.49988 48.8214 4.62977 48.9935 4.85148C49.1655 5.07319 49.2236 5.3615 49.1507 5.63159L46.3871 15.8915C46.1512 16.8104 45.724 17.6705 45.133 18.4166C44.2555 19.5874 42.9563 20.3786 41.505 20.6261C41.5244 20.3521 41.5472 20.0788 41.5472 19.8V4.5H48.2726ZM8.86702 18.4166C8.27598 17.6705 7.84882 16.8104 7.61287 15.8915L4.84931 5.63159C4.77638 5.3615 4.83448 5.0732 5.00652 4.8515C5.17856 4.62979 5.44498 4.49988 5.72741 4.5H12.4528V19.8C12.4528 20.0788 12.4756 20.3521 12.4951 20.6261C11.0437 20.3786 9.74447 19.5874 8.86702 18.4166ZM14.2712 19.8V1.8H39.7288V19.8C39.7226 25.2651 35.2485 29.6938 29.7276 29.7H24.2724C18.7515 29.6938 14.2774 25.2651 14.2712 19.8ZM41.5486 52.2H12.4528V46.8H41.5472L41.5486 52.2ZM36.8454 45H17.1546C17.5411 43.922 18.5709 43.2013 19.7264 43.2H34.2736C35.4291 43.2013 36.4589 43.922 36.8454 45ZM31.546 41.4H22.454V39.6H31.546V41.4ZM25.1816 37.8V31.5H28.8184V37.8H25.1816Z" fill="#FF5C00"/>
<path d="M16.0896 48.6C15.5874 48.6 15.1804 49.0029 15.1804 49.5C15.1804 49.9971 15.5874 50.4 16.0896 50.4H37.9104C38.4125 50.4 38.8196 49.9971 38.8196 49.5C38.8196 49.0029 38.4125 48.6 37.9104 48.6H16.0896Z" fill="#FF5C00"/>
</svg>
