<svg width="54" height="54" viewBox="0 0 54 54" fill="none" xmlns="http://www.w3.org/2000/svg">
<path d="M41.8949 18.0183C42.0627 18.18 42.2869 18.2704 42.5202 18.2704H42.536C42.7745 18.266 43.0015 18.1675 43.1674 17.9964L46.98 14.0573C47.3252 13.7006 47.3154 13.1323 46.958 12.7877L44.3261 10.2515C44.1549 10.0851 43.9239 9.9943 43.685 9.99944C43.4465 10.0038 43.2194 10.1024 43.0536 10.2734L39.241 14.2125C38.8958 14.5692 38.9056 15.1376 39.263 15.4821L41.8949 18.0183ZM43.7228 12.1669L45.0603 13.4554L42.4982 16.1029L41.1607 14.8145L43.7228 12.1669Z" fill="#FF5C00"/>
<path d="M11.7423 32.9473C7.2333 33.023 3.62867 36.7116 3.66678 41.2109C3.7049 45.7103 7.37151 49.3376 11.8811 49.3371C11.9303 49.3371 11.9795 49.3371 12.0287 49.3362C14.9668 49.2908 17.6567 47.6829 19.0829 45.1196C20.5092 42.5563 20.4545 39.4281 18.9395 36.916C17.4246 34.4039 14.6801 32.8906 11.7423 32.9473ZM16.5022 45.5897C14.375 47.7932 10.9838 48.1901 8.40335 46.5375C5.82287 44.8849 4.77222 41.6434 5.8942 38.7961C7.01618 35.9488 9.99813 34.2893 13.0157 34.8327C16.0332 35.3762 18.2454 37.9713 18.2989 41.0302C18.3287 42.7275 17.6825 44.3672 16.5022 45.5897Z" fill="#FF5C00"/>
<path d="M19.4633 29.3917L17.944 30.9616C12.7617 27.8894 6.09469 29.1779 2.43681 33.9585C-1.22108 38.7391 -0.709637 45.4955 3.6264 49.6737C7.96244 53.8519 14.7478 54.1266 19.4088 50.3126C24.0698 46.4986 25.1281 39.8057 21.8704 34.7451L23.39 33.1752L24.0799 33.8399C24.5784 34.322 25.2456 34.5909 25.9398 34.5896C26.6953 34.587 27.417 34.2769 27.9381 33.7313C28.4356 33.2174 28.7081 32.5274 28.6957 31.8131C28.6832 31.0988 28.3869 30.4187 27.8718 29.9224L27.1819 29.2576L37.3692 18.732L43.3009 24.448C43.6444 24.7859 44.1115 24.969 44.5936 24.9548C45.0748 24.948 45.5332 24.7496 45.8669 24.4037L47.1377 23.0907C47.8324 22.3708 47.8125 21.2259 47.0933 20.5304L46.4246 19.8859L48.9866 17.2388L49.655 17.8829C50.3763 18.5765 51.5241 18.5567 52.221 17.8386L53.4917 16.5256C54.1864 15.8057 54.1665 14.6607 53.4473 13.9653L47.5147 8.24932L49.9903 5.69123C50.9499 4.7301 51.0815 3.22107 50.3027 2.10901C49.8259 1.46345 49.0884 1.06006 48.2865 1.00617C47.4846 0.952285 46.6996 1.25337 46.1403 1.82931L23.2552 25.474L22.5653 24.8092C22.0515 24.3111 21.3592 24.039 20.6429 24.0538C19.9069 24.0686 19.2084 24.3805 18.707 24.9184C18.2095 25.4321 17.937 26.1221 17.9495 26.8363C17.9619 27.5506 18.2583 28.2306 18.7733 28.7268L19.4633 29.3917ZM20.0709 34.0192C20.05 34.0477 20.0309 34.0775 20.0137 34.1085C19.9768 34.1549 19.9447 34.205 19.9179 34.2579C19.8936 34.3095 19.8745 34.3633 19.8609 34.4186C19.829 34.5278 19.8215 34.6428 19.839 34.7553C19.8453 34.811 19.857 34.8661 19.874 34.9196C19.8938 34.9766 19.9196 35.0314 19.9508 35.0831C19.9635 35.1153 19.9782 35.1467 19.9949 35.1771C23.1043 39.3834 22.4644 45.2654 18.523 48.7081C14.5815 52.1508 8.65346 52.0056 4.88608 48.374C1.11755 44.7441 0.765284 38.8385 4.07569 34.7883C7.38609 30.7381 13.2548 29.8944 17.5765 32.8474C17.6061 32.8621 17.6366 32.8751 17.6677 32.8862C17.769 32.9435 17.8815 32.9784 17.9975 32.9884C18.0275 32.9914 18.0561 33.0052 18.0862 33.0052C18.1125 33.0052 18.1371 32.9921 18.1632 32.9899C18.2245 32.9844 18.285 32.9724 18.3437 32.9541C18.4573 32.9221 18.5624 32.8651 18.6511 32.7873C18.6796 32.7703 18.7071 32.7515 18.7334 32.7312L20.758 30.6391L22.0954 31.9277L20.0709 34.0192ZM47.4352 3.07657C47.6243 2.87867 47.8927 2.77639 48.1659 2.79819C48.4425 2.81567 48.6967 2.95616 48.8583 3.18091C49.116 3.58608 49.0476 4.1169 48.6958 4.44396L45.595 7.64739C45.4291 7.81863 45.3382 8.04862 45.3423 8.28674C45.3465 8.52486 45.4453 8.75159 45.617 8.91701L52.1973 15.2778L50.9054 16.5913L49.5899 15.3234C49.4191 15.1566 49.1879 15.0656 48.9489 15.0713C48.7104 15.0757 48.4833 15.1742 48.3175 15.3453L44.5049 19.2844C44.339 19.4557 44.2481 19.6857 44.2522 19.9238C44.2563 20.1619 44.3551 20.3886 44.5268 20.554L45.8433 21.843L44.5515 23.1564L37.972 16.8167C37.797 16.6563 37.5686 16.5665 37.331 16.5646C37.0925 16.569 36.8654 16.6675 36.6996 16.8386L25.8872 28.0101L24.5499 26.7215L47.4352 3.07657ZM19.7493 26.8053C19.7483 26.5471 19.8547 26.3 20.0432 26.1231C20.2085 25.9515 20.4357 25.8528 20.6742 25.8491C20.9137 25.8396 21.1461 25.9309 21.3148 26.1008L26.6218 31.2143C26.7938 31.3792 26.8927 31.6059 26.8964 31.8439C26.8969 32.1019 26.7907 32.3487 26.6029 32.526C26.2571 32.8814 25.6885 32.8914 25.3304 32.5484L20.0239 27.4353C19.8516 27.2704 19.7527 27.0435 19.7493 26.8053Z" fill="#FF5C00"/>
</svg>
