<svg width="182" height="35" viewBox="0 0 182 35" fill="none" xmlns="http://www.w3.org/2000/svg">
<path d="M7.78665 17.0372C7.12397 15.1519 5.06786 9.1564 8.86915 4.11283C12.5185 -0.729066 19.8302 1.22772 22.4452 2.3985C17.7519 2.73965 8.24873 6.1447 7.78665 17.0372Z" fill="#FF5C00"/>
<path d="M11.972 23.9861C10.0054 23.6163 3.77621 22.3955 1.30173 16.5888C-1.07461 11.0124 4.27913 5.66912 6.60246 3.99341C4.55065 8.22167 2.75318 18.14 11.972 23.9861Z" fill="#FF5C00"/>
<path d="M20.028 24.0254C18.7241 25.5402 14.5503 30.3163 8.27527 29.5517C2.25025 28.8179 0.292296 21.5172 0 18.6714C2.64284 22.5585 10.3479 29.0718 20.028 24.0254Z" fill="#FF5C00"/>
<path d="M24.1359 16.9628C24.7986 18.848 26.8547 24.8443 23.0534 29.8871C19.404 34.729 12.0923 32.7722 9.47743 31.6014C14.1714 31.2603 23.6739 27.8552 24.1359 16.9628Z" fill="#FF5C00"/>
<path d="M20.028 9.94022C21.9946 10.31 28.2238 11.5308 30.6983 17.3375C33.0739 22.9132 27.7201 28.2564 25.3975 29.9322C27.4486 25.7039 29.2461 15.7855 20.028 9.94022Z" fill="#FF5C00"/>
<path d="M11.972 9.86731C13.2759 8.35252 17.4497 3.57642 23.7247 4.34097C29.7498 5.07476 31.7077 12.3748 32 15.2213C29.3572 11.3342 21.6521 4.82087 11.972 9.86731Z" fill="#FF5C00"/>
<path d="M55.387 24.9672C54.8002 25.531 54.1232 25.9595 53.3559 26.2527C52.6111 26.5459 51.81 26.6925 50.9524 26.6925C49.2598 26.6925 47.8832 26.1851 46.8225 25.1701C45.7844 24.1327 45.2653 22.7907 45.2653 21.1443V12.2806H41V9.60796H45.2653V4.33035H48.1089V9.60796L54.5068 9.60796V12.2806L48.1089 12.2806V20.8398C48.1089 21.8322 48.3684 22.6103 48.8875 23.1741C49.4291 23.7154 50.1625 23.9861 51.0878 23.9861C52.1485 23.9861 53.1189 23.5801 53.9991 22.7682L55.387 24.9672ZM65.0622 26.6925C63.7081 26.6925 62.4895 26.3881 61.4062 25.7791C60.323 25.1701 59.4767 24.3357 58.8673 23.2756C58.258 22.193 57.9533 20.9751 57.9533 19.6219V9.60796H60.7969V19.6557C60.7969 20.9187 61.1918 21.9562 61.9817 22.7682C62.7941 23.5801 63.821 23.9861 65.0622 23.9861C66.326 23.9861 67.3641 23.5801 68.1766 22.7682C68.989 21.9337 69.3952 20.8962 69.3952 19.6557V9.60796H72.2388V19.6219C72.2388 20.9751 71.9228 22.193 71.2909 23.2756C70.6816 24.3357 69.824 25.1701 68.7182 25.7791C67.6349 26.3881 66.4163 26.6925 65.0622 26.6925ZM84.9432 12.2468H84.8416C83.3296 12.2468 82.0206 12.5738 80.9148 13.2279C79.8315 13.8594 79.0755 14.739 78.6467 15.8667V26.3881H75.8032V9.60796L78.6467 9.60796V12.0438C79.3012 11.2318 80.1362 10.5891 81.1518 10.1154C82.1899 9.64179 83.307 9.40497 84.5031 9.40497H84.6046L84.9432 12.2468ZM95.7677 9.26965C97.3023 9.26965 98.7241 9.66434 100.033 10.4537C101.365 11.2431 102.414 12.3031 103.181 13.6338C103.949 14.9645 104.332 16.4192 104.332 17.998C104.332 19.5768 103.949 21.0315 103.181 22.3622C102.414 23.6929 101.365 24.7529 100.033 25.5423C98.7241 26.3091 97.3023 26.6925 95.7677 26.6925C93.5786 26.6925 91.8635 25.9144 90.6223 24.3582V26.3881H87.7787V0L90.6223 0V11.604C91.8635 10.0478 93.5786 9.26965 95.7677 9.26965ZM95.6662 23.9861C96.7269 23.9861 97.6973 23.7154 98.5774 23.1741C99.4801 22.6328 100.191 21.9111 100.71 21.009C101.229 20.0842 101.489 19.0806 101.489 17.998C101.489 16.9154 101.229 15.923 100.71 15.0209C100.191 14.0962 99.4801 13.3632 98.5774 12.8219C97.6973 12.2806 96.7269 12.0099 95.6662 12.0099C94.6055 12.0099 93.6238 12.2919 92.7211 12.8557C91.8184 13.397 91.1187 14.1413 90.6223 15.0886V20.9075C91.1187 21.8547 91.8184 22.6103 92.7211 23.1741C93.6238 23.7154 94.6055 23.9861 95.6662 23.9861ZM110.648 26.3881H107.804V9.60796H110.648V26.3881ZM110.648 4.9393L107.804 4.9393V0L110.648 0V4.9393ZM121.923 9.26965C123.232 9.26965 124.406 9.61924 125.444 10.3184C126.482 10.995 127.294 11.8972 127.881 13.0249C128.468 14.1526 128.761 15.3366 128.761 16.5771V26.3881H125.918V16.5771C125.918 15.7426 125.715 14.9758 125.308 14.2766C124.925 13.5774 124.383 13.0249 123.683 12.6189C123.006 12.2129 122.262 12.0099 121.449 12.0099C120.524 12.0099 119.678 12.2693 118.91 12.7881C118.166 13.2842 117.624 13.9496 117.285 14.7841V26.3881H114.442V9.60796H117.285V11.3672C117.872 10.6905 118.561 10.1718 119.35 9.81094C120.14 9.45008 120.998 9.26965 121.923 9.26965ZM145.446 9.60796H148.29V26.3881H145.446V24.3582C144.205 25.9144 142.49 26.6925 140.301 26.6925C138.766 26.6925 137.333 26.3091 136.002 25.5423C134.693 24.7529 133.655 23.6929 132.887 22.3622C132.12 21.0315 131.737 19.5768 131.737 17.998C131.737 16.4192 132.12 14.9645 132.887 13.6338C133.655 12.3031 134.693 11.2431 136.002 10.4537C137.333 9.66434 138.766 9.26965 140.301 9.26965C142.49 9.26965 144.205 10.0478 145.446 11.604V9.60796ZM140.403 23.9861C141.441 23.9861 142.411 23.7154 143.314 23.1741C144.217 22.6328 144.927 21.8998 145.446 20.9751V15.0209C144.927 14.0962 144.217 13.3632 143.314 12.8219C142.411 12.2806 141.441 12.0099 140.403 12.0099C139.342 12.0099 138.36 12.2806 137.457 12.8219C136.577 13.3632 135.878 14.0962 135.359 15.0209C134.84 15.923 134.58 16.9154 134.58 17.998C134.58 19.0806 134.84 20.0842 135.359 21.009C135.878 21.9111 136.577 22.6328 137.457 23.1741C138.36 23.7154 139.342 23.9861 140.403 23.9861ZM161.452 12.2468H161.35C159.839 12.2468 158.529 12.5738 157.423 13.2279C156.341 13.8594 155.584 14.739 155.156 15.8667V26.3881H152.312V9.60796H155.156V12.0438C155.81 11.2318 156.644 10.5891 157.66 10.1154C158.698 9.64179 159.816 9.40497 161.012 9.40497H161.114L161.452 12.2468ZM172.435 20.6706L177.92 9.60796L181 9.60796L168.983 34H165.868L170.878 23.8169L163.736 9.60796L166.883 9.60796L172.435 20.6706Z" fill="white"/>
</svg>
