<svg width="32" height="32" viewBox="0 0 32 32" fill="none" xmlns="http://www.w3.org/2000/svg">
<path d="M26.8185 18.4444C27.8126 19.4739 28.8643 20.4427 29.7567 21.5786C30.152 22.0811 30.5247 22.6007 30.8083 23.185C31.2133 24.0183 30.8476 24.9321 30.1442 24.9816L25.7747 24.9807C24.6463 25.0797 23.7482 24.5971 22.9911 23.7791C22.3867 23.1272 21.826 22.4309 21.2439 21.7567C21.006 21.4801 20.7556 21.2196 20.4571 21.0146C19.8614 20.6037 19.3439 20.7296 19.0026 21.3894C18.6549 22.0607 18.5754 22.8047 18.5423 23.5519C18.4947 24.6443 18.184 24.9298 17.1502 24.9812C14.9413 25.0908 12.8454 24.7355 10.8974 23.5547C9.179 22.5132 7.84893 21.0433 6.68992 19.379C4.43299 16.1347 2.70451 12.5739 1.15146 8.91087C0.801921 8.08591 1.05764 7.64451 1.91598 7.6274C3.34206 7.59825 4.76813 7.60195 6.1942 7.62601C6.77457 7.63572 7.15858 7.98782 7.38157 8.56849C8.15221 10.5788 9.09696 12.4916 10.2808 14.2655C10.5963 14.7379 10.9184 15.2089 11.377 15.5425C11.8832 15.9108 12.269 15.7891 12.5077 15.1899C12.6604 14.8091 12.7263 14.402 12.7594 13.9939C12.8729 12.5961 12.8864 11.1988 12.6901 9.80662C12.5679 8.93539 12.1058 8.37277 11.2867 8.20806C10.8695 8.12431 10.9306 7.96053 11.1335 7.7079C11.4857 7.27113 11.8156 7.00093 12.4749 7.00093L17.4116 7C18.1897 7.16194 18.3642 7.53208 18.4698 8.36306L18.4742 14.1799C18.465 14.5014 18.6265 15.4546 19.1711 15.6651C19.6075 15.8178 19.8955 15.4467 20.1564 15.1538C21.3403 13.8218 22.1838 12.2496 22.9392 10.6223C23.2726 9.90471 23.5601 9.16211 23.8394 8.41812C24.0471 7.86799 24.3701 7.59732 24.9557 7.60657L29.7095 7.61259C29.8496 7.61259 29.9919 7.61398 30.1306 7.63942C30.9318 7.78471 31.1513 8.15022 30.9034 8.97889C30.5133 10.2809 29.7553 11.3654 29.0144 12.4527C28.2202 13.6168 27.3732 14.7402 26.5868 15.9094C25.8642 16.9782 25.9214 17.5163 26.8185 18.4444Z" fill="white"/>
</svg>
