<svg width="48" height="48" viewBox="0 0 48 48" fill="none" xmlns="http://www.w3.org/2000/svg">
<path d="M30 24C30 31.1813 24.1808 37 17 37C9.81919 37 4 31.18 4 24C4 16.82 9.82061 11 17 11C24.1794 11 30 16.82 30 24Z" fill="#707070"/>
<path d="M32.0008 11C29.0863 11 26.4032 11.9711 24.2349 13.5923L24.2453 13.5935C24.6718 14.0056 25.1422 14.2956 25.505 14.77L22.801 14.8129C22.3773 15.2406 21.9912 15.706 21.6272 16.1896H26.3953C26.758 16.6251 27.0934 17.0035 27.3976 17.4844H20.7628C20.5197 17.903 20.2949 18.3333 20.0985 18.7805H28.153C28.3636 19.2263 28.5521 19.5631 28.712 20.035H19.6215C19.4772 20.4836 19.3537 20.9424 19.2601 21.4104H29.0928C29.1891 21.8602 29.2631 22.2761 29.3138 22.7H19.065C19.0221 23.1278 19 23.5619 19 24.0001H29.3878C29.3878 24.4603 29.3553 24.8866 29.3086 25.3001H19.065C19.1092 25.7408 19.1742 26.1737 19.2601 26.6002H29.0772C28.9758 27.0214 28.8587 27.4451 28.7119 27.8845H19.5915C19.7293 28.3291 19.8971 28.7607 20.0803 29.1819H28.153C27.9294 29.6551 27.6759 30.0334 27.3965 30.4767H20.7395C21.0022 30.9316 21.292 31.3658 21.6065 31.7818L26.3955 31.8533C25.9873 32.3433 25.4635 32.6385 24.9863 33.0675C25.0122 33.0883 24.2232 33.0649 22.6697 33.0403C25.033 35.4791 28.3362 37 32.0006 37C39.1803 37 45 31.1799 45 24.0001C45 16.8203 39.1815 11 32.0008 11Z" fill="white"/>
</svg>
