<svg width="48" height="48" viewBox="0 0 48 48" fill="none" xmlns="http://www.w3.org/2000/svg">
<g clip-path="url(#clip0_1_5652)">
<path d="M19.8026 17L17.4939 30.9719H21.184L23.4912 17H19.8026ZM30.9332 22.6914C29.6437 22.0721 28.8531 21.6541 28.8531 21.0207C28.8689 20.4448 29.5216 19.8547 30.9792 19.8547C32.1781 19.8255 33.0592 20.0995 33.7277 20.3721L34.0626 20.5174L34.5643 17.5942C33.8354 17.3202 32.6798 17.0182 31.2523 17.0182C27.6082 17.0182 25.0423 18.8608 25.0264 21.4962C24.9963 23.4409 26.8635 24.52 28.2608 25.1674C29.6883 25.8315 30.1742 26.262 30.1742 26.8521C30.1584 27.7579 29.0199 28.1759 27.9576 28.1759C26.4857 28.1759 25.695 27.9606 24.4947 27.4559L24.0088 27.2406L23.4928 30.2786C24.3596 30.6533 25.9537 30.9831 27.6084 31C31.481 31 34.001 29.1853 34.0326 26.3767C34.0453 24.836 33.0607 23.656 30.9332 22.6914ZM44.0244 17.0432H41.1695C40.2898 17.0432 39.6213 17.2893 39.2404 18.1673L33.7591 30.9719H37.6317L38.6983 28.1997H43.031L43.5844 30.9831H47L44.0244 17.0432ZM39.7723 25.402C39.847 25.409 41.2587 20.8765 41.2587 20.8765L42.3829 25.402C42.3829 25.402 40.5012 25.402 39.7723 25.402ZM14.4106 17L10.7952 26.4926L10.4014 24.6206C9.73289 22.4606 7.6371 20.1134 5.29819 18.9475L8.60876 30.958H12.5131L18.3149 17.0015H14.4106V17Z" fill="white"/>
<path d="M9.18516 18.8022C8.90342 17.7368 8.0049 17.0183 6.7846 17.003H1.05897L1 17.2615C5.4664 18.3324 9.21527 21.6275 10.4315 24.7269L9.18516 18.8022Z" fill="white"/>
</g>
<defs>
<clipPath id="clip0_1_5652">
<rect width="48" height="48" fill="white"/>
</clipPath>
</defs>
</svg>
