<svg width="32" height="32" viewBox="0 0 32 32" fill="none" xmlns="http://www.w3.org/2000/svg">
<path d="M11.5475 26C20.6042 26 25.5578 18.3047 25.5578 11.6314C25.5578 11.4129 25.5578 11.1953 25.5434 10.9787C26.507 10.2638 27.3389 9.37867 28 8.3647C27.1013 8.77309 26.148 9.04092 25.1718 9.15923C26.1998 8.52812 26.9691 7.53548 27.3366 6.36606C26.3701 6.95428 25.3126 7.36884 24.2099 7.59182C23.4675 6.78221 22.4856 6.24611 21.4162 6.06647C20.3468 5.88683 19.2494 6.07368 18.294 6.5981C17.3385 7.12251 16.5782 7.95526 16.1307 8.96748C15.6833 9.9797 15.5735 11.1149 15.8186 12.1976C13.8609 12.0969 11.9457 11.5752 10.1974 10.6662C8.4491 9.7572 6.90672 8.48131 5.6704 6.92134C5.04073 8.03306 4.84787 9.34911 5.1311 10.6015C5.41433 11.854 6.15234 12.9486 7.19488 13.6626C6.41127 13.6388 5.64475 13.422 4.96 13.0305C4.96 13.0512 4.96 13.0728 4.96 13.0945C4.96031 14.2604 5.35385 15.3903 6.07387 16.2926C6.79389 17.1949 7.79606 17.8139 8.9104 18.0448C8.18547 18.2476 7.42488 18.2772 6.68704 18.1315C7.00169 19.1349 7.61427 20.0124 8.43911 20.6412C9.26395 21.27 10.2598 21.6186 11.2874 21.6384C9.54375 23.0438 7.38982 23.8067 5.17216 23.8044C4.78039 23.8037 4.389 23.7793 4 23.7316C6.25181 25.2136 8.87192 25.9997 11.5475 25.9961" fill="white"/>
</svg>
